<?xml version="1.0" standalone="no"?>
<!DOCTYPE svg PUBLIC "-//W3C//DTD SVG 20010904//EN"
 "http://www.w3.org/TR/2001/REC-SVG-20010904/DTD/svg10.dtd">
<svg version="1.0" xmlns="http://www.w3.org/2000/svg"
 width="500.000000pt" height="500.000000pt" viewBox="0 0 500.000000 500.000000"
 preserveAspectRatio="xMidYMid meet">
<metadata>
Created by potrace 1.11, written by Peter Selinger 2001-2013
</metadata>
<g transform="translate(0.000000,500.000000) scale(0.100000,-0.100000)"
fill="#000000" stroke="none">
<path d="M1314 3688 c-259 -260 -477 -478 -485 -485 -12 -10 -14 28 -13 258
l2 269 -344 0 -344 0 0 -1029 0 -1030 343 2 342 2 2 260 c1 143 2 264 2 269 1
5 228 -218 504 -495 559 -559 561 -561 682 -641 210 -138 463 -218 705 -222
l45 -1 3 342 c2 322 1 343 -15 344 -121 5 -235 39 -340 100 -42 24 -205 180
-579 552 l-521 518 485 485 485 486 -244 244 -244 244 -471 -472z"/>
<path d="M2833 3122 l-22 -3 0 -685 1 -684 344 -344 343 -343 686 0 685 0 0
346 0 346 -685 -2 -685 -2 0 685 c0 644 -1 684 -17 685 -57 3 -632 3 -650 1z"/>
</g>
</svg>
